<mxfile host="app.diagrams.net" modified="2021-12-14T02:56:08.832Z" agent="5.0 (Windows NT 10.0; Win64; x64) AppleWebKit/537.36 (KHTML, like Gecko) Chrome/96.0.4664.93 Safari/537.36 Edg/96.0.1054.53" etag="GV5J2UhcKLqMPQ-0Q3so" version="15.2.9" type="github">
  <diagram id="-F4GrlgI-DvWnmPTHVRt" name="Page-1">
    <mxGraphModel dx="1102" dy="586" grid="1" gridSize="10" guides="1" tooltips="1" connect="1" arrows="1" fold="1" page="1" pageScale="1" pageWidth="827" pageHeight="1169" background="none" math="0" shadow="0">
      <root>
        <mxCell id="0" />
        <mxCell id="1" parent="0" />
        <mxCell id="-wKBaeeB7A7SKTH61NCe-4" value="" style="whiteSpace=wrap;html=1;rounded=0;align=left;verticalAlign=top;strokeColor=none;fillColor=default;labelBorderColor=#000000;" parent="1" vertex="1">
          <mxGeometry x="430" y="1050" width="120" height="60" as="geometry" />
        </mxCell>
        <mxCell id="vg9BvrznN0Vk-DovWU1x-1" value="" style="shape=image;verticalLabelPosition=bottom;labelBackgroundColor=#ffffff;verticalAlign=top;aspect=fixed;imageAspect=0;image=data:image/png,iVBORw0KGgoAAAANSUhEUgAAAiMAAAE/CAYAAACU1sPMAAAgAElEQVR4nOzde1xUZf4H8M8MCMwgcplRRBQQtQEtITOzZkhXd4XKXdMtNYFulriiGRaaGpRMZoYb2RahZTeYVPLazwrdld2C8ZYppsmMlYJIis5wEZkBBM7vj/Ec5zAXhpuD+n2/XvNSzn1mzpzzPc/zfZ5HwDAMA0IIIYQQJxE6+wAIIYQQcnujYIQQQgghTkXBCCGEEEKcioIRQgghhDgVBSOEEEIIcSoKRgghhBDiVBSMEEIIIcSpKBghhBBCiFNRMEIIIYQQp3LtyEpnSs919XEQQggh5BYzOHigQ8t1KBhpzw4IIYQQcvtpT8EFVdMQQgghxKkoGCGEEEKIU1EwQgghhBCnomCEEEIIIU5FwQghhBBCnIqCEUIIIYQ4FQUjhBBCCHEqCkYIIYQQ4lQUjBBCCCHEqSgYIYQQQohTUTBCCCGEEKeiYIQQQgghTkXBCCGEEEKcioIRQgghhDgVBSOEEEIIcSpXZx8A6ZkKCgqwevVqXL16FQAQFRWF5ORkuLu7t3tbZWVl+OqrrzB48GAMHjwYMpkMIpHIYrnGxkbk5ORAKpVizJgx8Pf3h0AgaHP7VVVVWLx4Mc6ePQsAePPNN3HPPffYXP706dNYunQpqqur4ePjg1WrViE0NLTd78sRTU1NqK2tRUtLC8rKylBdXY3z589j0qRJkEgk7dpWQ0MDevXqBaGw888QRqMRe/bsQVhYGIYMGQJX1+uXgs8//xxVVVWIiorC8OHDrX5X5NbSUleHijWrUF98EgAgcHeH/6IlEEVEOvnI2odpbET1ji24eq4M9VoNRJGj0HfufMCB6whxLgpGepDm5mYcP34c1dXVVufX1dWhuLgYzc3NFvM0Gg3++OMP7u/S0lJotVo89thj+Pjjj+Ht7e3wcRQXFyM5ORkHDx7kpg0dOhRNTU0dCkY0Gg1eeuklAEBAQAB27NiBMWPGWCxXXl6O9evXc/vNyspCQkJCm9tnb/R79uwBAKSmpnLzGhoaoNfr4e7uDqFQCG9vb1y9ehVarRbHjh1DREQEF3DZcuXKFeTk5KCmpsbqfL1ej2PHjnF/G41GFBUVoba21uY2169fj+eeew4CgYALWC5cuICKigrue66urkZRUREuX76MoqIihISEIDc3F2FhYW1+Jm1hA7Li4mKEhoYiNzcX99xzD2pra7F3715kZ2cDAHJychAbG9uubbf1eXXEuHHjMHbs2C7bXk/RpNejvvgXm/Mbz/yOJr3eYnpL3RXUF58E09QEAGAaG3D1YgXQ0oL+r66A98N/dfgYmKYm6D76EJd3f8tNE3p4oPmK7fPX4niMRrQYDTbnC64Fu/Unf+GO2VFuwSFwGxTk8PLGoiOo/V8+AKC5pho+0x5HL//+7donufEoGOlhcnNzsWrVqi7b3h9//IHq6mqHg5GKigosXbqUF4gAQGZmJgYOHIhFixa1OyA5ceIE9/+xY8di2LBhVpc7evQot9/w8HAoFIp27ceaCxcuYNasWdi3bx8XmLVXQ0MDduzYgd27d3f6eFgbN27Eww8/jMDAQPz++++YMWMGL6Cx5vjx4ygrK4NWq0VmZmab+7BX6nPgwAEUFxcDAEJDQzFgwAAAwJkzZ3DgwAEApu8gMrL9T8bd8Xnl5OTcmsHIhfM4//pytBjqumybjSVnHF+YYVC9fQuqtmziTW6pr0fF6jfguvodeISPaHMzNbt24GJGus35nvcrIHl6Ns6nvYpmGw9btvRLSobboCAwzc2oP3kCzW0EuULP3tz/G8+V4fJ3u+A+9A6767Q34CFdj4KRHsTFxQV9+/bt0m0eP34c58+fR3BwcJvLlpaWIikpCTt37gQAeHl5oW/fvjh9+jQAYNmyZbh8+TKWLVsGLy8vh/ZfW1uLo0ePcn8rFAr4+PhYLFdXV4f/+7//4/6+7777EBIS4tA+WtPr9WhpaYFQKIROp8OZM6aLc79+/TpUstMZwcHBGDZsGIRCIfz8/HDXXXfBxcUFUqkUDMMAAKRSKfr3799mMBIcHIyysjK4u7tzpUD22Cr1qaurQ2FhIff3uHHj0L9/fzAMg//85z/49ddfAXTuOyCOEfbpA6FX7y4ORk6jpb4eQg8Pu8sxTU2o+mojdB/+C2hpAWCqnkFzM5imJjTpLuHcSwsQkPoGPO+73+lVHUxjI/SfbUDd/sK2F2a1tEC3vu3AnQ14iPNQMNLD3H333Xjrrbeszhs0aBD3BNvY2Ija2lr4+flh2LBhvHr9U6dOYdCgQejfvz8vF8AWhmGwf/9+vPjii/jxxx8BmAKRjIwM/P3vf8fy5cu5J/G33noLJ06cQHp6ut3qgn/961/YtWsXV2XBysnJ4T0xz5s3D1OmTMEvv/zCm75//35MmzbNYrtjxozB8uXL4WHnQjtlyhRERUVh6dKlMBgMOH/+PABTVZO99RyVmZmJ8PBw7u9evXph6NChcHV1xenTpzF79mwcP34cERER2Lx5M2Qymd3ticVi3HPPPRCJRBg1ahQuXryI999/HwDwzDPP4I033kC/fv2471KlUnXq+M0/64CAAEyaNAkCgQBVVVW8IOWzzz7DZ5995tA209LSkJKSYnXe/PnzMXDgQN60EydOICcnB4CpBGb69Om8c9hoNCI3N5crvblVufj4wDtmMlqMRot5Ajc3eIQPh6CXG8AwaL5cA4FQiF4DB6FX4PXPs6WmBk3VVfC4IwxCT0+H9ttypRYX1/4TNd/t4gIR99ChGLBqDRrPluJ8yhK01Nejuboa5YtfhN+Tz0Ly5LMQuLlZ3Z774CHwnT4LzdVVqP3fXjCNjXDx8YHX+IkQuLmj18BBcPHxhfdfp6Kp4gK3jLC3F7wm/AVCDw8wTU2oU/+AqxUXAAC9o8ajV8AAuA8e0t6PldyEKBjpYcaPHw+JRILs7GwcO3YMly5dQlZWFpdjsXfvXsTHx3M32K1bt/Iu9L/++iuSkpJw8OBB+Pn5ITk5GS+99BJ69epldX91dXX48MMPkZaWxuU4eHl54c0338RTTz0FV1dXvPXWW2AYBh9++CEAYNeuXdi3bx9effVVzJkzB55WLoDV1dVWn97NS0kA4Mknn0RzczN27drFvScA0Gq10Gq1FusPHjyYK1FQKpXYvn075s+fb7FcQUEBRo8ezbvBLVq0CIsWLeItd+zYMatBVWFhIeRyucV0ABg5cqTNeTqdrt0JpiKRCCtXruT+VqvVXDDi5uYGX19fm0GlXC5HTEwM9/22dRNnGAaFhYXcZx0dHY0RI0zF8P/973+xffv2dh27I2bOnGnxealUKi4YCQoKwoIFC3gJvXq9nleVdKty8eoDv6dmo3rLJlwp+B5Nly7CI3wEAl57AwI3N7TU1eGP5cmoO2SqOvOQhWFgxgdw8fEFADDNzahUfY6qjabPspd/fwxY9U94hIVb3yHDwPjzMVxYlYbGsyXcZLegEASkvQm3QUFwGzgIASvexPnXlqGlvh5MUxP0n6zHle/z4f/yMohGRliUkohHj4F49BjUHdiHy/8xBbriUfeiX1KyKZi6pu8/FqDht1OoO7QfzY2NcJVIIJ3zD7j6SdBiNOLq+T+4YMRn2uOmEhkrhGJPSBPmoVdAIDet6WIFXPr0gcCDn3DNNDWhseQM3IcMAQTXf5tXCn9AzdfbbH855Iaipr09UHBwMCoqKrBnzx4cPXoUubm5aGhoAAA88MAD+Nvf/sYtm5ubi8uXLwMw3Yjee+89Lu8iKioKzzzzjNVApKGhAd988w3+9Kc/ITk5mQtEgoODsWHDBsybN4+7AXp5eSE9PR3Lli3j1q+srMSiRYtw//334/PPP0ddXceLmc+ePetQtYM1R48etWiV8re//Q3BwcF4+OGHUVZW1uHjssVgMGDu3LkQCAQWr7CwMK66hQ10rC0XExMDvZXExPa688478dJLL2HJkiVYsmQJFixYgKAg28XNJSUlyM3N5f4ODQ2Fp6cnLl++zFXPkRtL6OGBXgMCYfzlOK5eOI+6/YUw/nLcNM/TE77Tn+BKJOp/PYW6g/u5dQ0/HkTN9i3XNiSE76wn4SGzXmLZeK4Mf7y2DGcTn+MFIqLIURi09kO4hw41TRAI0DtqPAa89Q5czKpUG37/DWcTn0PZwn+gXqsBrj0UmDMcOcyVtIgiInmBSFcSuPWC+O570FvxIDyGj4Dh6GFcfDcdxuJf4Hm/HL0VD5pe8ig0XboI3ccfQv/Jerh49UFveRR6Kx40BSekx6CSkR5Ep9NxyZ7s0yoAbNmyBXfddReX92E+74cffsDWrVsxePBgHD16FJ9//jk3b8yYMSguLkZxcTHuvPNOSKVSGI1G5OfnY/Xq1SgoKODtXy6X47333sOoUaMsjs3T0xMrVqzAHXfcgUWLFqGyshKAKSfl6aefxmuvvYbZs2cjNjbWImHy+eefx6xZswCYqpc+/PBD7NixA4DpSX379u28xNXWRfY//PADvv32W942jUYjysvL4eXlZVESsXjxYgQFBaGqqgo///yzzc+7p9i5cycvIZUNLgEgLy8Pv//+O/ceJ0+eDD8/vw7th80JaZ2cDPBLRQICAvDxxx9jy5Yt+PTTTwGY8oValyqZs5eL8/PPP1vkrrB5KYCpFG3fvn28PKTa2lqbrcpuFeYJmUxzM3oNCMTVc2Voqa+H/rOP0VJ7GRC6gGlogNugIDT8/hvQ0oLqndsgFInANF41LVdfDwDoFTAALn364Iq6AC7e3vAYficEQiEay85C/+lHqN27h9+SRSiEz6OPoe/8F63ml3iOGYugdZ/hfOorpuADAFpaYDh8CKXPzIL7kKHwi3saXn/6MwRubmiuroLhR1MJjouPD8R3225e3yECAVwlErgFhUDo1RvNl2tw6f13Ub0tl/sMarZvgXjUvegtjwIA1B3cD92H7wEtLajXanD2H89CfPc98H95KYQiMdyCTDlRQrFj1Vuk+1Aw0oNotVr86U9/spheWlqKp59+2uo658+fx7PPPmt13vLly7n/FxYWws/PDx9++CHXzNbcs88+i1deeQVSqZRL/jTHNj+dPHkyhg4ditdeew179+7lHePGjRsxZcoUi20PGjQI48ePB2AKIrZtu140+vPPP/NKReLj47F48WK4uLhw0xobGy2CEVZoaKjVm/OgQYPw448/cqUUSUlJeOutt+Dm5gatVsu1XnE0r8OcUChE3759MWnSJIt55s16vby8EBkZabWfjkGDBnGf8ZUrV2yWDJWWlqK0tJT7W6FQdDgY+eOPP7Bx40aL6RcvXsQnn3zClY49/vjjuP/++/H1119zy3h4eLS7XxTWvHnz7M4/ePAgr7TvdmEvIdPw40EYfrQMGgFT09XyoiMW06+Wn8P5Fa8CMLVeGfDGaly9cB5lL85D06WLvGWFHh7oOz8JvcdPsFrCAZj6HhF6emLAqn+i6ssvUL1jKy+Yafj9NxgOH4LXRNPvoOH0b2g4Y0p2d5VI0VhaiqsXTFUurn372SyxcZTQwwP9l6ZywdW5FxMtmgm73xEGF29v03sSCCAaGQGfx2agapOKW9Zw9CeciZ+OPn+JwaD318FV2rWNBkjHUDByGxEKhZg1axby8/PxzTffAADuvfdeTJo0CStXrsQnn3yC6OhoqFQqixuPefPTiIgIZGdn4/jx40hLS+NyOxISEnDXXXe165hcXFwwatQonD59GqGhoZg2bRovELG2vEAgQF1dHUpKSuDr64s+ffpYLNfQ0IDvv/+e+/uee+6Bm43ku/by8PCAUqm0Os880AkNDcVHH33UrkCnuzAMgy1btuC///2vxfSNGzdygUdwcDDi4+O7JNGXOJ9byGD4xT6Ji++uMU0QCtFbHoWrf5SjYs0qVKxZhX5JyfB9/AmLdS9lrkX1tSogn6mPISTnK1SsfgOGoz8BMOWn+MU/DYGr67XOxraCaWwEYApU/khZwm3LZ+pj8EheZrGP9mAaGnBhVRou7/nOYp77kKHwnT4LLj4+aK6uhuGnHyEaGQmh2BN95y2E9+RHeceOlhZc3v0trnyfD9/ps+D39HNttj4i3YuCkR7KWnVFe9hKZOzfvz9eeOEFHDlyBMnJyZgzZw5++uknLoFy0KBBDu3Tzc0Ns2bNwl/+8hesW7cOBQUFeOyxxxzqMdXcnXfeiTfffBPJyck4fPgwjEYjGIaxuZ3+/fvDw8MDlZWVaGhogLu7u9UqgqqqKq4TuGHDhrU7SGrLhQsXsGnTJi6Xh1VZWYmLF01PoWyJg7WSjGnTpnH9rSgUCi5IMBgMeOedd7hSp0cffRT/+Mc/uEDK398fR45YPhW3RaPRcFUu5gQCAUJCQuDl5YXa2lrExsYiMjLSolpFpVLxWtqwHOnBduzYsRYB46VLl7hkZj8/P0RERPBym65evYpjx45x1YG3A1HE3fCQ2Ug8dUC9thjGY/wEcQgE6PPQZFz5/r9ovlwD/5eXwX3oMPyxfLGp2geAW+BAK1uz5BYUjEH/Wocr6h9wKfM99Il5BG6DTFXHxl+Oo67wB9srX2sNxDQ1oflyDVcawzQ3o7nGVB3HNDSAudrIrdJSW4umSj0EQiGEvb0gcHeH95RpuPLDf7lqGbfgEPSd9wJ6yx9E9Y6tKF9iqkr0HHM/Bqy6EwK48Y699of/4eI/V3EdybXU15tKc2yUDpEbh4KRHspaC4P2sNcaYcKECTh16hR69zZ1DmSe5MmWPNjj6enJPTn37dsXr776KhobG22WPJSVleF///sfAFOVS0VFBW++QCBAQ0MDcnNzkZKSApVKZbO1Cqu2thZVVVUYO3YsxGKxxfz+/ftj48aNmDNnDr766iuH+llpj5qaGnz22Wd2+wY5f/483n77bavzFAoFF4wEBwdzx/fDDz/g5MmT3HL+/v6IioriBYgdCUb27dtn81gnTZqEWbNm4cSJE3j++efh6upqEYzYat3kSA+2a9assdqaJi4uDoCpdK51aZxer0dsbGyXdpzW03lN+LPVEgpHVX210TIYganFzoC3/gkXz96AUIimSj2uVpw3W6Dt2wDXkZhQiN5R49Fb/qDpb4EALXV1qMz+lAsQAECakIjeD45H+ZJFpjyYujqcX5FiUSV19VwZSmIft7rPP1JfMR2ejw8GvZcF96F3QDQyEt5TH0PdvkIuCMG16k6m2azKxsUFQKvrmFAIr/ET4DnmPug/+xhVm1Rw8fGFdM48CGnIA6ejYKQHkcvlXLPVb775pkO9hZp76qmn8PXXX1sECa6urlwgAoAb0wW4XvLQWlVVFdf5mTX2qkA++ugjfPTRRzbnnzhxAjNnzuRudunp6Rg6dCj8/f1triOTyaBWq3Hu3Dmb+3Z1dUVjYyOGDBmCrKwsbnpbpRfu7u6YOXMm+ve/sV1IX758GRs2bOA1cW5pacF3332H4cOHd6obeDbw8fLygkgk4t4/YGpa/Pzzz+PChQvUydkNJBSJMPCf7wEAmioqULUt93p1SgeF5ORebxVjxsXreslUc001Wq7lB7l4e8PVSsldS329RZ4J/+Cv55Q1nP4NxlY5LEKxGC7ePhDYqXLtkJZm9OrrD89774Php8Mw/HSYm2UwO4bG07/h0gdruW7ozfVWPMhV3TSeLYV7KLWq6QkoGOmhjhw5whtjpSMSEhLw6KOP2l3GaDTyEiQBU+lF66qP0tJSLsFx3759OHXqVJeVNowYMQL/+Mc/8OKLLwIwtS4ZOnQoVq5cabeVhqenJ2Qymd0msm19jtZKLyIiIvDQQw9xwYhOp8OFa4l4d911l0Vp1cSJE5GVlQVfX1+b+6mqqsLcuXN5Sb+tffvttxb9fOzcuRObNm3CgAED8O677yI6Otrm+vYMGDAA99xzD6KjoyEUCvHGG2/w5tsbWBCw3ZpGKBS22RtvbW2txXdkMFwfx6SpqQlVVVW8+VVVVWiyMoaJeYlKd0lPT0dOTk6bPeJ2RkJCAjIyMrgSr+baGtT83/Z2d5Xemuf9cqvBiLmmigo0VV//vFsaGy2WYeqNuGo21pXxxM9ouXIFQrOHGJZ76FB4jLgLhp9+tL1ToZBrCdNiNHCBjsDVFa7+/SFwcQXAoOliBVfC4tq3H4QiMYRevSFwNVXhMU3NqPvxYJu9sF6tuIDqbblW5/UKDIR49Bi4BQXDLahrS0xJx1Ewcpu7ePEijh8/zv29YsUKnDp1Cm+++Sb3lNzc3GxxYd61axcefPBBh7pXl8lkXODS0tKCX3/9lRcACQQCPPfcc/jll1+4EpT169dj9OjRmDlzZqffY1cSCoUW1Viurq7w9fWFRCKBwWDAwoULuVIt84Hm7PWGW1xcjHfffddicD22BEOr1SI2NhbvvPNOh45bIpEgMjISzz//PDcIXnu0pzVNQ0MDL5fmoYcesrv83r17bY5XRLqeeV8gzTU1OLcgAdK58+Hz6GNcfyZXy8tx9cL1Err6kydQf6oY4lH3WmxP6OmJ3g+Oh/HnIjDNzdy2ecuIxfC/lsBad3A/ziUlAjB1tjbo/XVw8fFFi9GIP15dwgUa/Ze9ZrPTM3LroWCkh3rssccQFRWFgoICpKamYty4cVi0aJHVliOA6QawYcMGfPXVV9w0hULRZquIn376Cfv27eNN27hxI/bt24c33ngDjz/+OCorK7lu4ln//ve/8dtvv/H6PLElNjaW6yrcaDQiKSkJ69at4y3j6emJpKQkHDp0CMeOHUNtbS02btyIiRMntrl9e0aNGmXRvX5lZSWys7Nx/vx5BAQEID4+3qKaxnxgwStXrvCqNewxGo28HBxHuuOvq6tDRkYG1//HI488wrV2io6OhoeHB3bu3InKykrs3LkTDzzwgEPHYs7T0xNpaWnccALdic3nIY7r1T8AAalvoKlSD/0n63H1j/JrPZA+YHNMmHrNSVRmfwrmWs6Oe+hQuIfYTiQGwOsLhNVSX4+L765Bbf5/0H/Za3ALCobh6GHeeDlMYyMu7/4OoohRVqtexBF3Qzp3PiqzP22zdOdq+Tnu/67+/SFwd7wVi9DDAwGvKS2a9LbU1uKPV68n5fadtxB9Hp5sOvZrrXAMhw85vB9y41Ew0kOFh4ejtLQUGzZsAAB8//33XE+orXMHLly4gOXLl/MCkTfffBOPP/643WTU1r1uDho0CHV1daisrERpaSnmzZsHDw8PCIVC/Oc//+GtW1xcjC+//BIrVqxw6IbriLCwMCQmJuKll17CggUL8Morr6BXr15cFUlHPPLII3jkkUd407RaLXbv3o3z58+jX79+ePbZZ+02v62srOTyOPr37w+pVAqdTmd12fLyci63JiAgAEOH2i8yb25uRnp6Olci9Oc//xlPPvkkF4yEhIRg2bJl6NOnD06dOoWVK1d2KIHVzc2tU4GIrdY0QNvjBXVla5rY2FiupKk7vfzyy92+D3PC3l7wGD4C51OX4eof5QCAmq+3w8XH13JMmJYW1OzagarcL7lAxFXaF/2XvwZXO3lWgKlUpP7XU9d2KoTQ3QMtRlOVmfHnIpx/fRn6L1+B2r2W/d7U/ncvvP82FaIRli3T3O8IA4RCVGZbttjiYRjUn7qeCO3at1/7mtQKBHDpYzkCuaHkNBrLTLlvAjc3iO68C65+ppK8FqPRZk+wxl+Ow3BgH7wmPWRqVdTOoRxI16FgpAcbN24cnnvuObz99tuora3ljQkze/ZsuLi4IDc3F6tXr+a1dHj99dfx4osvtlmF0nosktdee40LCI4dO4annnoKo0ePxsKFC7ll5HI5KisrUVxcjE8//RQTJ07EhAkTuuT9CgQCzJgxAwqFgutG3Wg0orm5uUu231Hmibv9+vWzmTDbetRbmUyGgIAAu9t2cXHByJEjAZiSS+fPnw+pVMpbpm/fvvjnP/+JS5cuITw8nBeMVFRUoKCggDum7uq51FZrGoA/XhBgyrFhq/UiIiLw2WefWQR71JrGkksfb0ieeR6NpWdwteICb0yYfouWQBxxN+p/PYVL7/3zen8ZMAUiA9JWwSPcfillc3U1Kr/M5qpR3AYOwoA3VqNS9QUu7/4WQg8PSOckwnDkR67HVYGbG1z7+ZtaxFyphX7DOgxQrnZ4QD6LY6ipRoP2emsx95DBnR4NuKWuDpU5n3N9nLgPDoVbyGCH1q0/eQK6Deug27DOZn8r5MagYKQHE4lEWLZsGWQyGZKTk1FaWsqNCbN27Vq4uLjwbpR+fn545513EBsb22ZpRXFxMVatWsXlKMjlckycOBEhISHYtGkT1qxZg5dffhmbNm3iOsTy8vJCSkoK1Go1lEolzp8/j2XLluHTTz/ljWLbGX369LFZFQXAbn8W3cFoNPIG9xs4cCDEYjF69eoFmUwGf39/rjdVjUbDG/flp59+wtKlSzFnzhzccccdGDRoENdrq3kpwj333IMHHngAkZGR+POf/8wb5ZjVt29f9O1r2VPkjh07uK71e4pz58yK4V1d7XZiR/hEEZEIyvoUf6xYzrVQafj9N5QlPg8Xb28019bycjI8ZGEISHsLboNsj0cEmAaL03/2MepPnuCmeY2fCPchw9B/aSp6BQRAKBLDxdcPlW+uuH48d0VA8tRslC9LRsuVWtQd2AfdRx+i7/wXrbZUYTX8/jtcvA6gpdWYVfUnT3C9tArc3GwP6Oeglvp6XHo/A3UHrlc1e02cxA0k2JamS5e4/1NPrM5FwUgPJxQK8fjjj2PYsGF44YUXuPFkWreACQ0Nxdq1a/HQQw+1efEvLy/H0qVLeWOUPP7441ySaVhYGLKyspCbm8sbTXbq1Km4//77ERAQgC1btqC4uBgHDx7Eiy++iPfff99mEmJqamqHWwbV1NTwbm432oULF3jBQVhYGFxcXBAaGorNmzcDMOXrbN26ldcbLWAqpfjiiy/wxRdf4K677sKcOXOwcuVK9OvXj7ePgIAAxMTE4LHHHsJL8UEAACAASURBVLM6AnJPYD6+UGs+Pj5cyUzrZOf+/ft3qK+clpYWp5eIOYurvz8GrlkL/Yb1qNx4Pdm4uaaGt5z43vsQkKqEq0TaehN8LS2o3paLqi2buEm9/PubcioEAgjc3CB9fh6uVlxA+ZJFaNJdu0ELhfCZ+hhEkaPgNe5PqPnG9FBStWUThJ6ekDzzvM2ApObrbRYj4rYYjaja+lWHSjCsaTxbyu9VFabgrM9Dkx1an2luRpPeVN0qcHODq2/HhlkgXYOCkR6mpaUFNTU1KC0txZkzZ7B//3785z//4T2dW3P69Gn89a9/hZ+fH+69916MHj0aw4cPx4ABAxAcHAwfHx94e3vj1KlTWLhwIW8slEceeQQzZszg8ksaGhqwfv16LF++nDea74IFC9CnTx+MGDECzzzzDBYvXgwA2LNnD/76178iNTUVf//73x1qYdNac3Mzvv76a5w6dYqb1tjYiH//+9+8Af3aakbKqq+vx8qVK3HokGXSmtFo5EqUTp8+jeeff96i19mgoCC8/fbbyM/P54K2gIAALmGXYRhUVFRgy5YtWL9+Pa9FkpeXF5KTk1FcXMyNBXP8+HEsWLAAy5Ytw9SpU7Fw4UJERkZCKBTCzc0NS5Ys6VB39cHBwRg2bBg3zk139VxqPr6QPRcvXuQlO99xxx0OBVgXL15EXl4eAgMD0dzcjO+//97qgH63ohajEc1VlWg4/TvqTx5H3aGDaDilsUjSbM3w40H8/tdJcPH1g3voEHiEj4BH+HC4ePvALTgEQrEnBC4u0H/2EfRffMorUfF9Io7rPRUAGn47hT9SlvJG8/Wa8Gf0VoyDwNUVvjPjUHdwvylQaWmB/tOPYCw6Av8lrzrcPPbyd/+HuoPXSzDEo++Di7ePnTWsYBg0lp1F1aYc1OzayfuMXKV90X9papvBWWNpCZjGRlytuICGa9VRrtK+cO1vv0qVdC8KRnoIhmGQkZFhdRA7a2JiYgCYRnU1V1lZid27d1vUtSckJOCdd97BkSNHsH//9SHIg4ODkZyczPWpceLECSxduhS7du3ilvHy8sKbb77J9UXh4uKCp59+Gvv37+dyTrRaLZYtW4bg4OA2e0+1xsXFBS4uLnjllVdsLhMeHo4hDg77zTAMLl26ZHMAOlZtba3F6MWAqRXLxYsXeYPFyeVyuLu749VXX8WWLVus5lDIZDJefyBLlizB6tWruaDEvLQkMTER6enpEIlEHR43JyYmhtdfhbNzLQ4dOsQLImQymUPvTSQSYffu3TabHbcuTboVNJaWoGxBwvWSCDuEHh5wDxuOBs1JXk+nANBcVQnDT5X8fj6EQgxc8x7cQ4fgirqQF4j0VjwI70emAAKBabC+T9aj8ssveDd292Ey9JufxCXOug8ZCsnTs1HxztvctgxHf8KlD9Yi4PWVFj2Yev9tGnorHuT+bvhVC93HWdy6Lj4+6BP9UPvyRVpaUJHxNqq3WvYf4uLjg/6vrjAl0rYicHXhHV/1tq9Qve0r3jIeYcPh2sHerknXoNThHkIgEGDq1Km47777bC4zceJEZGZm4uzZs/j222/x7bff4syZM1i9erXd9QBTl99isRjTp0/nRvNlg4wHH7x+0QgODsagQYO4v728vJCRkYHp06fzWub07dsXq1ev5nIg2G1Za3a6bNky6HQ66HQ6nDt3Ds8884zVYwwJCbHb38RTTz11Qwedk0gkmDt3Lld9FRMTg/DwcHh6eloEIn5+flAqlSgoKEBMTAwEAgEEAgEiIiKQk5ODH3/8EZMnXy8+Dg8Px5w5czo89lBPdPXqVZSVlXGtYsLDw6FQKBxa18vLC3fffbfVeVOnTkVkZGSXHWdP4RYUjD7RD9ucL/TwQO8H/4TA1RkY8m0+gjI/xpBv8zHgjdUQRY6ym7PhMewOeISFw7WfPwKWv8blQ7gPk8H/5aVcAqqgVy94jLiTty330KEY8MZquPbjt8zx/ts0SJ6azbU4cR8mg/9LS7gbvcC1F3oFDoRbUAhEd41Eb8WD6K14EJ73yyEUe6LlyhVuW74zYuE+pJ19ywiF8H18Jnr583tGFt97H0I+3QjPMWOtribo5YY+D0222WpH6OEB78lTbLa4ITcGlYz0IEFBQZgyZQr3ZDlu3DiMHz8eDzzwAO69916rPXyGhIRg8eLFSE5ORmVlJddvyIEDB/Djjz+isrIS48ePx9ixph+qq6sr5s+fj4qKCigUCkydOpUXZHh5eWHx4sX4+eefodPpuKd8a02Ehw0bhs8//xyLFy/GiBEjLAIWlnmHWfX19QgMDOSCGPNu6QMDAxEaGsq1RvHy8kJkZCSGDBmC2NhYjB8/3uFmxG5ubpg7d26HO03z8PCAl5cXHnroIWzcuBFr1qxBTEwMXFxc8MQTT+Cbb77Bzz//jIkTJ2LGjBl4+OGHbSbeCoVCjB49Gjt37kR+fj6WLVuGF154ocOD902bNo1rWuzq6spLhpVIJBalZTdKr169MH/+fCgUCqSkpEAmk9ls2ty7d2/uHGATgMeMGcMN2AeYmgQ/8MADePHFF60m7970BAL0iX4INd/sRHN1NYQeHvAYfhc87xsLz/vlcAsJtQg4hB4e8JrwF3hN+AuYq41oPHMadQf3o+7QATSc/h3NVabqud7jJnBJnO53hMF/yauo/moT+qes4FdjCATorRgH3+mzoP/iE/RWPIj+S1PhYiV/QuDqCunsBLj280dl9qemIMcsYHELGYzgj76wXM/FBb4zZkE86h6cT0tBr4AB8H1sZoda0bgFhcAv/mlUvPM2RHeOhOTZOfAcPabNJrm9H1AgaP1nqP3+v1xX+ADgKpHA68/R6BXQ/f3vEPsEDNP+4QrPlJ7D4GDHRnok7VNTU4P6+npIJJIu6b/DaDSisbERffr0adeIur/++it8fHwcugmwiYbOajXB5tm0XCsC9vLy6nC1hy3mAwEyDINz585BKpV2qGTj6tWrEAgENr/fxsZG7obs6ura7u+uLVeuXOF6SHV3d+cFhCyGYXD58mWuS3Zby9liNBpRX19vt4t8ci2J8mIFXPp4d7i5LE9LC5ovX4bQU9yuJ/2Wujo0lpyBR/hwh/raYK42dqgkoaW+HmhphlDc8ffKNDaipe6KKdjqwt8F6XrtiRUoGCGEEEJIl2tPrEA5I4QQQghxKgpGCCGEEOJUFIwQQgghxKkoGCGEEEKIU1EwQgghhBCnomCEEEIIIU5FwQghhBBCnIqCEUIIIYQ4FQUjhBBCCHEqCkYIIYQQ4lQUjBBCCCHEqSgYIYQQQohTUTBCCCGEEKeiYIQQQgghTkXBCCGEEEKcioIRQgghhDgVBSOEEEIIcSrXjq54pvRcVx4HIYQQQm5THQ5GBgcP7MrjIN3oTOk5+r5ucvQdks6g84c4Q3sKLaiahhBCCCFORcEIIYQQQpyKghFCCCGEOBUFI4QQQghxKgpGCCGEEOJUFIwQQgghxKkoGCGEEEKIU1EwQgghhBCnomCEEEIIIU5FwQghhBBCnIqCEUIIIYQ4FQUjhBBCCHEqCkYIIYQQ4lROCUZUKhWUSmWH51uj1+sRExODuXPnwmg0trm8Wq1GTEwM9Hq9xTytVosnnnjC6jyWUqmESqWyWC86OhpardahY1ar1Q4f7+2K/V7VarWzD4XYYO+35AitVovIyEiHfvPdce0ATL/nyMhIh3+7HaVUKm2ey0ajEXPnzqVrQjdp67p+o6/H7b1fWFvf0d/NzXDeOSUYGT16NE6ePNnhi1drRqMRy5cvx8iRIwEA27Zta3P57OxsxMfHQyKRdMkxAEBubi6efPJJyGQyh5YvKSlBYGAgRCJRlx3DrUYikSAlJQWJiYkd+tGyP1iBQGD11TqgJDeWXq/HwoUL4e/vj8LCwja/466+dgCmAEatVuOpp55CRkaG1Qsye8Fuff6sX7/e6nTzF3uzMBqNmDBhAhITE62ed9u2bcOBAwdw5syZNq9htxJrD3ZtYb+PG/GQ0tY1xNqru2/s7fnd3DTnHdMBp0vKOrIax2AwMAkJCUxhYaHV+Tk5OUxaWlq7tpWQkMAYDAZGo9EwERERNrfNbp9dnmEYJi0tjQHQ5isnJ4fbRlpaGu/vwsJCu+tGR0czOp2OdxyO7tfa/tujs9/XjcB+b+35PAAwERERjEajsfr5p6WlMRqNhpk5c6bFZ88wlt9hT9aTv8PCwkKr53dbWv92HdlOV1472OXZc4jddlvrm583rY+n9flm7XisnZOFhYXccWg0GmbSpEmMRqNx+H20paeePzk5OR26trHXTnvX+dbLtvfV1jF19nvq6Pod+d2w++vJ551TSkZEIhHi4+NRUlLSqe3o9XpMnToVgYGByMrKgkgkgkwmw+bNm21GgXq9nisVYUskUlJSwDAM99JoNJg5cyZ0Oh1v+rRp07inoNTUVMTFxUEgECAjIwNKpRKFhYW85c235+vryzsOo9GI8vJym+tYe8XGxnbq8+rpwsPDeZ+5TqeDwWCw+XnodDqEh4cDAORyOW9eTk6OxfZvtyqfZV8Ao5OA/GPOPhJL7G8XADIyMiASiSCXyxEfH4/Y2FibJR9dde0ATE/k2dnZ2Lt3L2QyGUQiETIyMlBeXt6tT7YymQwbN27kSmXVajUUCgU++OADyGQyyGQypKamYsaMGd1ebeQsbMlGXFxcu9Zjf8OpqakOr8Ne321d19lXYWEhEhISuGtOT7zedvR3A/T88+6GBiPsiSQQCKBQKBAXF9fhumatVouJEyciPj4eKSkpvHkymQx79+5Fdna2RX1aZmYm5HI55HI5V/zm6M1JJBIhKysLBoMBCQkJyMnJAcMwuHLlCuLj47lttq4H1Ol0qKqq4m3LYDB0yQX1VqbRaDB16lSHzg+9Xo+5c+dyy54+fRqhoaHdfYg9Uv4xUxDSzxvo7dE127RXVK1QKLB7925IpVKHiqzZ365cLuceIlixsbFISUnBxIkTeb+hrrx2sDfC8vJybN++nVdVy/7GAwMDHT73AEChUEAgECAsLAybNm3iPou2brZKpRKJiYnQaDSQy+XcdLlcjg8++ABhYWG3XPBsNBqRlJSEkpIS7nrpCL1ej9jYWISEhODo0aOIiIho976Li4ttnqcKhaLd23PkmNnztvUrLCwMe/bsQVhYmNX5rc/vjvxubOmR510HSl66rMgvLS2NSUtLa7OKA9eK3M3XY4uWHNkHrhXn6XQ6Jjo62qIoztr01i/zah3zKoXWRXnsezJXWFjIW5/dRlcXidnSU4to7XG0yNwcWyRuXnRuXjTJfs9s0e6tWE1TUc0wz641/Xu8hGHGvcIwe4u699hycnIcKiZmvxdHfrvsb6z174bV0WsHu7wj3zu7bOtzsCPVNK2vMXv27HHo/GbX6+x52lOvAR19f45Ux1tbx1aVLcNYv063tb3OXMPNq0js6czv5mY675zWtJdNGps3b57VIva0tDTetJSUFO6JBgCKiopw+PDhNhOJJkyYAJ1OB6VSiczMTOTl5fFKNmJjYyGRSJCXl2e3isQ8EtVoNPD398e6detQUFDARZBarRaFhYWYPn26Q59BRUWFzai49etWezpqTalU8t6vWCzGunXrkJqa6vBnExMTg5MnT2LPnj04c+YMpFKpxX58fX2tTr9V9PMGNrxg+vdGOX36NC5cuACdTmdzGa1Wi/vvvx9RUVHcb9daKwC2NYxMJkNRURGioqIgFot5539Hrh3m29bpdBg9enSbSYn5+flgGAaA6dxaunSpRRVtdna2Q58Re41hrz1isRhZWVlISUmx2orDaDRi8eLF0Ol0yMvL65FVBjej9paMqNVqm+dHe0s2WispKcGxY8e69Xej0WhumvPOaU1709PTMXLkSOTl5Tm8HluEyl5cYmNj28yzkMvl3IWAXW/btm1cHVt76fV6XLx4EQqFAp6enkhKSsKhQ4cAmFrTKBQK6HS6Nuuc2ZOmrePX6XQOF2PezMzzdtgfTuubir3vGDBd8CdPnoxHH30UgwcPRlBQkJPf1a1Pr9dDrVYjLCwMhw8ftrkce76zvzlHq9HY3zj7HXf02sFuKy8vDxKJxKHfH3u9SElJQV5eHlatWgWGYZCWlsZV0cbHxwPoeDWNNWxewJ49e3D27Nl2r09sa52XZv4qLCy0WL51sGv+0mg0mDRpEjQajdX57LlmjdFoREFBAWbMmIH8/Hybx9tVvxtHOPu8u+HBiEql4n6gU6ZMQXZ29g196ler1YiLi+MuHuyTdesnc1vN8zIzMzF8+HBuezKZDElJSdBqtTh58iT3tBYYGNhlzaRu9af51o4cOYKSkhLMmzcPwPU6fkea/8XExCA6OhpRUVEWTabZJ5Db6bPsbhqNBgCwYMEC7Nq1q105HCEhIRbTTp8+DbVabXU7zr522MMmordOkrSWSG2PUqmEVCpFfHw8ioqK8Je//KWbjvj2YJ7r1DpQtFYysm7dOojFYodKNjrj7NmzOHPmDBYsWICTJ0+2K2G0vb8bR/SE8+6GBiNarRbHjh1DWVkZwsPDIZVKsXbtWq5kwRH2is3svdgOjdgo1LwVCxs9sk87rV9paWkATDdFf39/jBo1indMRqMRGRkZmDx5MhcJT58+Henp6byLpa2+CuwFQDqdDpWVlZ363G8mer0eSqWS1wcMG9RNmzaNCxxt0el0uHDhAgoKCixKpnQ6HTZt2tRm1jlxjHl/PaNGjYK3t7dDpRVsaYpCoeB1NMa2MNu9ezcX5LC64tphL5mwrZetQJgtrbX1BMomFraFvQmGhob22JYcNyPzEjC2xNW8xUzrUhHz+4K9ko3OYkvR5XI5hg8fjtzc3DbX6cjvpi096by7ocGITCbD22+/zXtiZUsWHGWt2CwnJ8fqCWb+Kioqgkwm46oD2lN8xRKJRJgzZ47FE/fZs2dx4MABrh6ZjcKPHTuG7Oxs/PLLLwgMDISfnx+ysrIcqnowLyb28/O7bZ7mMzMzERISgmnTpgEw3YR27dqFlStXQiQSYdSoUSgvL7cZkBw+fBhjx45FSUkJjhw5wmvOlp+fjxkzZnDLpqSk0EW/E7Zt24aSkhLExMRAJBIhKSnJodIRjUaDkJAQGAwG/P3vf+eaEp49exY1NTXYsWOHRdF1V1w7rOWGtVXUzr5snSetWxlZe/p25AmbvX613k9He5QlfCqVCmKxmNcNhHmPrHK5HBqNBomJid1aIgKYHqi3bt3K5RbOmzfPodKRjvxu2tKTzrubfmwa9omJbXMNOPZBmlfLdLYXTnv1z1lZWfD09Ozwtq01C75VqdVqqNVqLvDQ6/V4/fXX8frrr3NPKCKRCCtXroRarbb43sz7kImPj0d2djZXOsJeACZMmMBb53a+2F+sASandawvErVajfT0dKxdu5b7bmQyGSZPnozly5fbzZfKz8/nqtFSUlKwYsUKnD17Frm5uZg8eTImTZqE8vLybq+CMRqN2LBhA9577z2u12RHhoIAwD14HD58mPfbt9aXha0nbDYR157buYl6V2BL0tPT03H06FGUl5fbDBzDwsKQnJyM+Ph4SKXSbglKtFotEhMTub49AFOQPH/+fCxcuNDu/rrqd9NTz7ubOhjR6/XIzc3FihUrIBKJuBMvLi4OqampFkmk5sW0EyZMsHjqMS/ZMH+1p4Od1thEpY5+sfn5+VwS7q1Mq9UiLS2Nu7kZjUasXr0ar7/+OmQyGVQqFfd9SKVS7N69G3FxcbwflXkfMtOmTUOfPn1w9uxZ3gVgxIgRTnyX3a+uHpj9ninAePpd4Eo9sPgz09/LvuiafahUKiQmJmLz5s0WQx/Exsba7aODDThjYmK4aVOmTMGBAwdQXl6OadOmcR2bKZXKbn1CzcrKwuzZsyGTybhrA3uDat1fg3kVa3l5eYc7xmL7F1IoFDh9+rTdElq2+N1ajsCtrqs6KGRL0ouKihAZGckrmbYWOMbGxnLJn45U07Sn1JpN9P7ggw8svne24zJb/YR09ndzU5x3TAd0ts26TqdjZs6cyWg0Gof6+IBZt98stu116+Va9wdir125OXt9TljrO8TW8taOy5G267Y+h450s91aT+1jgNW6rwZb/cG0Zt4vgK02/2x307b6gbhZ+hrpCd8h+704ck5a6+bbWr8K9rZprf+Srrh2mB+freXa6nbe/Njb2j/M+iqx1nW3ve20p98Le3rC+eMsjvRF4+h1t/V540g/SO3pJ8Ra3zZd8bu5Gc47pwcjHWEwGJjk5GSH1i8sLGxXx1m3otvhQsR2gNV6WusfYOtg0dHO85zN2d9hezoLY5lfMA8cOGA1WGwrGGx9Ie7stYNhTBdrR96HTqdjEhISOv0w0BM4+/y5XbGdkLXnHmQevHz33Xdd8rtxlvacdwKGudarTzucKT2HwcED27sacRL6vm5+9B2SzqDzhzhDe867mzpnhBBCCCE3PwpGCCGEEOJUFIwQQgghxKkoGCGEEEKIU1EwQgghhBCnomCEEEIIIU5FwQghhBBCnIqCEUIIIYQ4FQUjhBBCCHEqCkZsUKvVFgPtdYS1UWH1ej2eeOKJNoeMJoQQQm4HPTIYaWtY944M+86OAtnRAEOr1SIyMtLqqL4CgaDbhzsnhJBbiVKptHod74oRe9kR3NmXI/cLdmTmmJiYbh0tmljXI4OR0aNH4+TJk112QhiNRixfvhwjR44EAGzbtq1D2wkPD+cNN80wDAwGAxISErj9sMOMs6+4uDikpqbypkmlUmzatAlhYWEU0BBCbjt6vR4nT57E9OnTLeZpNBqEhIRg1KhRNteNiYmx+WAoEAiQn5/Pu06npKS0eUxr1qzBgQMHwDAM8vLy2v2eWgdA9MDaPj0yGAkKCoK3tzc0Gk2nt2U0GpGUlAQAWLFiBZKSkpCenm7zxFAqlRAIBFAoFFi3bh3EYjEiIyN5x6LVavHEE09YBEsikQhZWVm8H0FOTg7S0tJ403Q6HWbOnAmNRsObLpfLO/1+CSGkJ1MqlVYfyNhrcn5+PnfttVa6IZFIoFKpkJCQwD0csg+FOTk5vOBDrVY7VCqiUqmwdetWbN68GV9++SWys7Nt3iNUKpVFoKFSqQAACQkJMBgMNh9YiW09MhgRiUSIj49HSUlJp7aj1+sxdepUBAYGIisrCyKRCDKZDJs3b0ZiYiJ3AplLSUkBwzAoLCzkTqyioiKEhYU5vF+2hEStViM2NtYiKpdIJNi4cSNkMlmn3h8hhNyM2KCh9c1aq9WitrbW4oaelpbGW18ikSAqKgqZmZkArt8zsrOzuYdErVaLxMREjBw50m7VvFKpRHp6OjZv3gyZTAaJRIK1a9ciMTHRakASGxtr99jYfUdHR1NeYDv0qGDEvPhNoVAgLi6uw/V3Wq0WEydORHx8vEUwIJPJsHfvXmRnZ7c798RRDz30EBQKBbd9tsTF2qu7joEQQm4WBoMBGRkZmDJlCkQiUZvLx8TEoLy8nLs/jBo1CnK5HGVlZdDr9Vi4cCGSk5Ntbs/8oXHv3r28h0P2HqFUKi0eWrVaLRYvXgyj0Qij0Yjy8nKEhIR08t2THhWMSCQS5OXl8SJOuVwOjUbTZh6G+Q1dqVRixowZ2Lx5M2JjY+3uC0CX1uepVCqsWbMGU6ZMgUaj4eW+mD8NmFfjhIaGdsm+CSHkZnXmzBkAwM6dO60+gLLXSfbBTiqVYt26dZBKpRAIBBCLxUhNTcXdd98NqVSK3bt3Iy4uzuo9QqVSQSwWIyoqCnl5eZBIJBb7k0gk2L59OwoKChAZGcmVcshkMnh5eWHbtm0wGAyoqamBVCrtjo/kttKjghFzKpUKarUa8+bNg1wubzMPIyUlhYt0AaCoqAiHDx+2m1AkEAgwYcIE6HQ6KJVKpKamcgmo5jkjAoEA33//vUPHPWLECK5ZcFBQEDZu3Gj1RGedPn26Sz4vQgi5mY0YMQJZWVmIiIjA8uXL7VatWHuws/fKyckBcL00pKCgAAaDAaNHj7aa/8fmBRoMBmRlZWHz5s2YMWMGF9BMnz4du3btQmFhIaqqqqwGI35+fhSktEOPDEZUKhXS09MxcuTIdmU1swmkbLVM67o9ay+5XM6VkqSlpXEJqK0DnnHjxnH70el08Pb2hlgstjiGyMhIbN++HQBw5MiRTn4ShBBy6zEvsRCLxVi3bh03LzY2FoGBgVizZg0AcFUhXYG9R7A5hPau5eZkMhmKioq4e4tMJsPw4cPx6KOPcvcQ0jk9LhhRqVSIi4sDAEyZMsVuVnN3U6vVVosL20qsZU/4tlrHUH0jIeR2ZCuBlTV9+nRs3brV6rU/JSUFMTExbTbvFQgEXM6htYYErMDAQIucEp1Oh02bNtlt0Tl9+nRERERgwoQJFvMcDXLIdT0qGNFqtTh27BjKysoQHh4OqVSKtWvX4tChQw5vo6223rZe5nWCRqMRBQUF8PHxsSguZOetW7cOSUlJMBgMNo8lIyPDIpvaPElXLBYjMDCQmvQSQogZmUyG5ORk5Ofnc9PMH9rY0mxrVfZs9wnR0dGIj4+3W2qRn5/P5R+aJ6qyD5zm+29Np9Ph2LFjVpcpKSlx6B5BrnN19gGYk8lkePvtt3mlETKZrF1NYNn8EnMqlQoFBQXIyMhwKEubTUpasWIFcnNzsWbNGqSkpGDjxo3QarU4cOAAZsyYAQAQi8XIysqy2IZarcaiRYvQr18/3vGbJ86aUyqVCA0NtZlwSwghtxP2WmgvdyQ2NhZKpRIxMTFQqVRcHyRxcXEoLCy0+6DHdrym0Wig0+mgUCgAANOmTUNBQQF27NiB7777Dnq93mpAk5+fj+TkZBQWFkKr1UIul0Mul3MPrG3dIwhfjyoZ6Q5saYt5INJWd/IajQbe3t4ICgrCyy+/jPLycqjVahiNRmRkZGDs2LEWRXPmTcD0ej2USiUKCwsdCi6opSeoYQAAIABJREFUuoYQQqwzGAx2q8ZTUlKQkpLCtaphk1PbKnE2v86zrTYNBgMKCwsBAJMmTeL1ZWJOq9WisLAQs2fPhkKhQG5uLjdv27ZtKCkpwX333cdbx1ozYXLdLR2M6PV65ObmYsWKFRCJRFwVDts02No4NUajEdnZ2YiPj4dIJIJIJEJSUhIOHTrEdReclJQET09Pm/vNzMzkomRztlrOUPMwQsjtxF4Ca2sajQYXLlywen1kxwxTKBSIiIjApEmTuFaQ9m787AMje50HrielJicnIykpCSKRiBsjxzx3hX0offLJJyGTyTBv3jyuvxO1Wo309HSsXbsW/fr168QndPvp8cGItXEIrPUzYp7zAVwfjyY1NZVrnqtQKHjd9SYlJeHZZ5/lVQux49aYj4sgk8nQr18/rrtgmUzGK8UwL9nQarU4efIk5s2bx3sfbEKWtXwVqVSK4cOHU4+shJDbgr0E1tZ5fwqFAsnJyZDJZBb3g4yMDOzfvx8Mw6CoqAi7d+/mtgvA6j2CTWiNj4/nPTAqlUooFAp88MEH3LXYWm+sR44cQUlJCWJiYrhlsrKykJmZicTExDbvEcQGpgNOl5R1ZDWH6XQ6ZubMmYxGo+nQ+gaDgUlOTnZo/cLCQiYtLc3ueoWFhUxERARvuk6nY6KjoxkADAAmISGBMRgMHTre7tbd3xfpfvQdks6g88fEYDAwCQkJTE5ODm96YWGh3Ws4e73/5JNPLO4R7DZbr9/6HhEdHc3odLrueWM9VHvOOwHDtMr2dMCZ0nMYHDywq+Mi0k3o+7r50XdIOoPOH+IM7Tnvenw1DSGEEEJubRSMEEIIIcSpKBghhBBCiFNRMEIIIYQQp6JghBBCCCFORcEIIYQQQpyKghFCCCGEOBUFI4QQQghxKgpGCCGEEOJUFIwQQgghxKluymBEpVJBqVR2eL4tSqXSYsA9a4xGIxYvXsxbTqlU8kZ2bGs6IYQQQkx6fDDCjuBofkMfPXo0Tp48yRttt7NUKhXUajWeeuopZGRkwGg02lxWJBJhypQpWLhwIXcM8+bNswg82L89PT0t9hUTE9Olx08IIYTcrHp0MKLVapGWlgaNRsMb6jkoKAje3t7QaDRdsh+VSoX09HSsXbsWc+fOBQCsWbPG7jpyuRxyuRx5eXkATMNIp6SkIDs7G0ajEVqtFrW1tdi+fTsiIyN567LDVy9fvtxu0EMIIYTcDnpsMGI0GpGRkYEnn3wSMpmMN08kEiE+Ph4lJSWd3o9SqUR2djb27t0LmUwGkUiEjIwMlJeXY+7cuRbBAltSIxAIkJqairi4OO5vhUKBdevWQSwWIywsDOnp6RCLxRAIBBYlITExMSgpKcGRI0c6/R4IIYSQm1mPDUaOHDmCkpISxMTEcNP0ej1iYmK4G39cXFyHqzuMRiPmzp2L8vJybN++HRKJhJsnEomQlZWFwMBATJ061WL7CQkJMBgMYBjGoZdGo4Gvry9vGxKJBHK5HPn5+e0+dkIIIeRW0mODkfz8fMjlcl6QIJFIkJeXx93k09LSIJfLodFouNIJgUCAuLg4pKam8qaZJ7Sq1WqIxWJERUUhKysLIpHI6jGkpKQgJSUFUqm0QwmxbZkwYQLUajXljhBCCLmt9chgxGg0ory8HBMmTLC5DJtwOm/ePMjlcl5JRE5ODtLS0njTUlJSuPWUSiV0Oh1Gjx6NyMhIXtDS+pWfnw+GYQCYqlbCwsKQlZUFg8HAldLYe6nVashkMmzcuJEXWAFAWFgYfH19odPpuu/DJIQQQno4V2cfgDUGgwE1NTWQSqVW57MJp5MmTUJeXh5iY2Md3nZsbCy3vEQiQVFRkUPrscEMiy2laU2v1yM2Nha7d+9GTk4OL/HWmqqqKuh0Oou8GEIIIeR20SNLRuxRqVSIi4sDAEyZMgXZ2dk9ph8PlUqF2NhYqFQqMAzTriCJEEIIuV3dVMGIVqvFsWPHUFZWhvDwcEilUqxduxaHDh1yeBvmSbDtfX366aeYO3euzflxcXHYvXs3pFKp1fkqlaobPx1CCCHk5tQjgxGxWAxvb2+LXAqZTIa3336bl3Aqk8mQlJTk8LZbJ8GyrV0mTZoEjUZjt1XMM888g6ysLJvzreWqmL+slZT4+vrarI4ihBBCbgc9MmdEJBIhMDCQa1HTnYxGIzZs2ID33nuPy9vQarV4/fXX8f7771sknXYljUaDqqoqCkaIQ86UnnP2IZCbGJ0/pCfrkcEIYGr2qlQqodfruzUgyMrKwuzZsyGTyXjJpwBQXFyMzZs3d1tyqbXmy4TYMjh4oLMPgRBCHNaeALhHVtMAwKhRoxASEmK1xYo5azkg1voZsTYAnkqlwqJFixAWFgaBQACpVIoLFy5w1TX79+9HRkaG3QRZlUrF26+95sitj1utVju8PCGEEHKr6rHBCNvle3Z2tt1OwazlgFh7FRUV8Uo42GRSe8uJRCKsXLnS7jHExsby1ne0WikzM5Mb34YQQgi5nQkYtkevdjhTeu6GFRmzfYp0Z3XJjaZSqZCdnQ2VSnVDqmhu5PdFugd9h4SQm017rls9PhghnUff182PvkNCyM2mPdetHltNQwghhJDbAwUjhBBCCHEqCkYIIYQQ4lQUjBBCCCHEqSgYIYQQQohTUTBCCCGEEKeiYIQQQgghTkXBCCGEEEKcioIRQgghhDgVBSOEkHZRKpXc2E7WGI1GzJ071+4Ak0qlEkqlst3rtUWtVvMGyGy9D3vHGxMTY3ccLEJI96FghBByQ2m1WhQWFmL69OntWs/aCN2tX/n5+byBK1NSUtrc7po1a3DgwAEwDNPmKOHWtA6AWr86E1wRcrugYIQQ0ibzQCA1NRVxcXE2b75isRjr1q2DQqGwWjpx+PBhKBQKyGSyNktZzEkkEqhUKiQkJECn04FhGBgMBiQkJCAnJ4cXfKjVaodKRVQqFbZu3YrNmzfjyy+/RHZ2ts3gQaVSWbxX9tgTEhJgMBh4gRB7bISQtlEwQsgt5mINMDkNGJ1kek1OM03rDIlEgry8PDAMg7S0NO7mb+3F3oQLCwstSif0ej127dplt1Tkl19+QWRkpNWSBYlEgqioKGRmZgIARCIR4uPjkZ2dzVWxaLVaJCYmYuTIkTAajTb3o1QqeSOCSyQSrF27FomJiVYDktjYWN77TEtLs1hGq9UiOjoaWq227Q+VEMKhYISQW0hdPbD0c2DKfcDhDNNrZIhpWl191+3HkZIRazIzM1FVVQWpVGqxLXa9I0eOYP/+/TZLFmJiYlBeXs4FH6NGjYJcLkdZWRn0ej0WLlyI5ORkTJkyBSKRyGJ989yUvXv3QiaTcfNkMhn27t1rtcRGq9Vi8eLFMBqNMBqNKC8vR0hISIc+P0IIHwUjhNxCPD2ADS8Az0dfn/b/7d1faBt3oi/wr2FfpBIHV9o4RWlrd2Gldi8r15jdlrFY1r61BCewTQx2UlnhQqE2DrvBSxw4N4yhEjkPcVnfdImxOezuvbG0sQNJHfCDbE4NF2vY3MX0KMuhHT0cR3VqTrOMusdbVtr7NOfB/U010kiWHNsT298PDG2kmdGMRjPznd8//3c/8O//ATx6snufU0vJSKlMJoO7d+8CAFRVRVtbG8bGxox1ieUikYhliIjFYmhoaIDb7cb09DTcbrcRYsbGxvD666/D7XZjcXHRFJaKq2sSiQScTicCgQCSySRcLlfZ57hcLnz00UdYWVlBW1ubUcrh9Xpx7Ngx3Lt3D/l8Hpubm6ZQRUQ7xzBCRHtOlFj09vYCAHw+H9LptGVVh5DP55HNZk2vVQtBVlM8HgfwbWnIysoK8vk8Ojo6cP78+bLeM5lMBufPn0c+n8fU1BTm5ubQ399vBJq+vj4sLCwglUqVlfAIzz//PEMKUZ2+Y/cGENHe+peHwPdeAFqbd2+dAwMDGBgYqDpPJBIx/l/TNASDQfzoRz+qq3dJU1PTrtzYHQ4HpqamTNtz/PhxOJ3Oqst5vV6k02nTv1977TW8/fbbiEajliUrRFQ/lowQHWL/vAgs/SsQ/slWFc5uqbeaxuv1YmRkpKZ1a5qGUCgEt9uN48eP46WXXgIAyLKMUCi0bffehoYGY8yQcDhcsXuvx+Mpqw7SNA2zs7NQVbXi9vX19cHv96Orq8ty22sJOURkxjBCdEj98yIwnQSu/w+gy2/31tTO7XYbPXempqZMgUH06onH44hGo2VBSJTARCKRqqUWy8vLGBsbM3XPBWBUCy0vL1dcVtM0PHz40HKebDaL6elpjIyMIJ/P72T3iY4khhGiQ2i3g0jxwF71jjPyNCObirYepT1bwuEwAJjWnUgk4Ha7Icuy8b6VXC6HTz/9FKqqIpVKYWBgAIlEAoVCASsrK5ifnzf11im1vLyM0dFRpFIpZDIZSJJkVAGtrKygv78fAOB0OjE1NQVJkna070RHCcMI0SFTaxApHo9k+WH1dUqSVFfD0eKpUq+VUqJdR/HNW/Ra6ejoKJtflmXIsmz0qhGNU7e7+auqalT/SJIEVVWRz+eRSqUAAD09PaaxTIqJ0WPfffdddHZ24s6dO8Z79+7dQzabxY9//GPTMvUM7EZ0VDGMEB0if94E7v+/rf+/8r+/HfisYwR498PdG2tEjMhafJMVrw0NDVUdbKzU2tpaxfdUVbXstZLJZNDW1obOzk74/X709PRgenoaTqez6o0/l8shFouZug+LRqmjo6MYGRmBw+FAKBSCoiimxraFQgETExO4cOECvF4vhoeHjRIURVEwPj6OGzdu4MSJEzXvOxF9Q9+BtezjnSxGNuHxOvielWOYSqV0ALrf79dVVdXX19fL5lFVVff7/ToAPZVKlS0fDAZ1TdN0Xdd1TdP0YDCoA6g4pVKpsvkGBwf1fD5vuY3xeNy0vNhWsY54PG6aPxqNWm6r2A/xeum2Fy8vPkPMJ7Yvn8/rg4ODZesmOgrquW4xjBwBPF4Hn93HUISQaDRa13LRaNTyBr7fRCgoDSLFwcGKCDC//e1v9dHRUSNwFK+zdPnS4PQs7D+RHeq5bjXouq7XW5ry6PMv0PryqacvlqF9weN18PEYEtFBU891i21GiIiIyFYMI0RERGQrhhEiIiKyFcMIERER2YphhIiIiGzFMEJERES2YhghIiIiWzGMEBERka0YRoiIiMhWDCNERERkK4YRIiIishXDCBEREdmKYYSIiIhsxTBCREREtvqO3RtARLV59PkXdm8CEdGeYBghOiBaXz5l9yYQEdWsngcoVtMQERGRrRhGiIiIyFYMI0RERGQrhhEiIiKyFcMIERER2YphhIiIiGzFMEJERES2YhghIiIiWzGMEBERka0YRoiIiMhWDCNERERkK4YRIiIishXDCBEREdmKYYSIdkRRFAwNDaFQKKBQKGBoaAiJRKLu9WQyGbS1tSEWi1WdL5fLYWhoCLlcrup6drINRGQvhhEiqlsul0MsFkMkEoHD4YDD4UAkEsHMzEzFsFBpPZcuXUJzczNSqRQymUzV+dvb29Hd3V02X6FQwMTEBJqbm3Hr1q1t10NEzxaGESKq2+TkJCRJgiRJxmvt7e1oaWnB5ORkTesoFAq4evUqWlpaMD8/j7GxMVy6dKlimHG5XHjvvfcwOjqKO3fumN774IMPAADz8/O4cOECJiYmUCgUdrh3RLTfGEaIDpn/eQvoGPl2Oh0F/ry5e+tPJBJQFAXDw8Om1x0OB65duwZFUbatKsnlcjhz5gwAYGJiAg6HA5IkIRKJIBwOVy1dCYfDkGXZ+HcsFoOiKLh27RocDgfC4TA8Hg9GRkYYSIgOCIYRokPmny4AqxPfTj9sAf7x/wB/+/vTrzuRSGB8fBw3btyAy+Uqe9/lcuHGjRsYHx+v2AYkk8mgu7sbkiRhamoKDofDeE8EDauqmFK5XA6hUAgbGxv46KOPTNsjyzI8Hg/OnDlTV7UREdlE34G17OOdLEY24fE6+J7mGH6c1vV/eF/Xn/zn021DPB7X/X6/rqrqtvNqmqYHg0E9GAzqmqbpuq7r+XxeHxwcrGkdqqrqfr9fHxwc1PP5vJ5KpXQAOgA9GAzqqVRK9/v9eiqVqroeMV8t20xEu6ue6xZLRogOsb/9HUj8363SkRPHd74eRVEwMzODjz/+GF6vd9v5XS4XkskkIpEIuru7kUwm8eabbyIQCCCdTmN1ddWy5CSRSCAWi8Hr9SKdTiMQCMDpdAIAdF2HqqpoamqCz+dDOp2GJEmIxWJl1UKZTAZXrlxBe3s70ul0TdtMRPZhGCE6hES7kZ/849a/r/Y93fokSUIymUQymURDQ8O2U1tbGzKZDMLhMNLpNEKhENLpNMLhMABgbW0Nr7zyyrafGw6Hoeu6qaHsdhRFgc/nw+PHj1lFQ3RAMIwQHULF7Ube8AL/8D7wb58//XpFONB1HfF4HNFo1Pi3mFKpFE6ePAm32111XS0tLWWvra2tQVGUHYUI0Ybk4sWLUFUVt2/fxqlTp+peDxHtP4YRokPunZ8A33sB+IO6u+uttXSjVC6Xg6Io6OzsNEpQgK2uvhsbG1hcXISq1rexAwMD6O7uxo0bN1gtQ3QAMYwQHXJ/+//Ak/8Evndy99aZyWSQSqXQ0dFR97KqqqKlpQX5fB69vb3o7+9HJpPB+vo6Njc3MT8/j+Xl5brWGY/Hy0KIGBVWUZS6t5GI9hfDCNEh97/ub/33v5XUivx5c2sMko4RYPlh7esTo512dnZalkBks1m0tLQYDU9LLS8vIxAIwOFwQJZlvP/++1hfX8edO3dw+vRp9PT0YGNjo2qIKBQKiMViVatz8vk8Njc3t60uIiL7MYwQHSJ/+zvw7ofmQc8AYGHs6XrTCIqiwOl0wuPxmAYeEwqFAlZWVuDxeEzjhxQvrygKQqGQ8drPfvYzPHjwABsbGzh79qwxtLxV2NA0DbOzs3jxxRfR1dVlOdZJ8bwAGEaIDoK97jtM9uPxOvjsPoZW44YUv45vxgDBN+OAFM8jWI35UWm9ur41rknp69FoVI9Go2XrLf784ikej+/WV0BEdarnutWg67peb4B59PkXaH2ZrdQPCh6vg++gH8NMJoNf/OIX+PDDD01VO7FYDK+88orR5beUoii4ePEi5ubm2CiV6ICp57rFMHIE8HgdfDyGRHTQ1HPdYpsRIiIishXDCBEREdmKYYSIiIhsxTBCREREtmIYISIiIlsxjBAREZGtGEaIiIjIVgwjREREZCuGESIiIrIVwwgRERHZimGEiIiIbMUwQkRERLZiGCEiIiJbMYwQERGRrRp0XdfrXejR51/sxbYQERHRIdL68qma5vvOXn8A2e/R51/weB1wPIZEdNDUU3DBahoiIiKyFcMIERER2YphhIiIiGzFMEJERES2YhghIiIiWzGMEBERka0YRoiIiMhWDCNERERkK4YRIiIishXDCBEREdmKYYSIiIhsxTBCREREtmIYISIiIls9E2EkkUigoaHBmBKJxLbLKIpS87xWYrHYjpfdqVwuh1AohIaGBsRisX397IOiUCjgypUryGQyALaO89DQEAqFgjFPIpHg93cAZDIZnD9/HrlcruZlcrkchoaGypbJ5XI4f/688bsAnt3fQaV9EDKZDNra2vb9+kP0LNvzMCJOvOKwUToBgK7rxhQOh7dd58WLF9Hf34+ZmZm6LnZCX18fFhYWqi5rte1tbW24f//+tvukKAoAc9Byu92QZRm6rkOW5bq3+Si4d+8ejh07hjt37hjfIbB1LK5cuYJCoYC1tTW88sorNa1vu9/fYb0hFAoFDA0NWe7fdkG8lnO2dLIKBZqm4fjx43A6nXVte2NjI7q7u6EoihHe3W43Zmdn4fP5jM8cGBjA2NiY8e/i0Fr6gFNtamtrM4Xf0vdDoRDu379f8zoAoL29Hd3d3abXxHGZmJhAc3Mzbt26VfY+0VG152HE6/Vibm4Oo6OjyOfz0HUdmqYhGAwilUqZwkcikdj25pDL5XDp0iX09vZidnYWkUgEV69eNT0517pdp0+fxuTkZNV50uk0NE3DuXPnoKoq0uk0fD4fXn31VWiaBl3XEY/HEY1Goes68vk8BgcHjXWEw2HTPpfui7jYlk6lpQFHQSaTwcLCAoaHhyvOk8/n8fXXX6Ojo8P0utVNRNwgi49V8RSNRvd0f+y0vr6OR48e4datW2Xfy9jYGAYGBqoGiubmZqiqavq+in/ntXyP2WwW09PTcDqdNQcal8uF69evo7e3F9lsFslk0jh/xDlYaXumpqbgcDiMzx8cHDSuOZUmVVXR3NxsLCNJkvH6uXPnoGkakskk3G63aX3RaBTxeNzYtldffdVYh8vlwnvvvYfR0VHcuXPH9J188MEHAID5+XlcuHABExMTR+48J7KyL9U0Xq8Xx44dw7179wBsnayRSAQzMzPGiagoCsbHx3HixImK68lkMuju7oYkSUbJQjgchsfjwcjIyLYndWmxcSgUgqIopifw/dbU1FR20U+lUrZtj10ymQz6+/vx05/+FO+88w5SqRQ6OzvR2dmJ6elpvP766/jrX/+Kx48fY2lpyfSEHIvFjJtI8Y2qlAh/dh7v/XLnzh10dnZicXHRMjyIG2nxtNuldWtra5afU2kq/nxZlk0lpC6XC7dv34bX6zVeC4fDz3QJY+n2xWIxKIqCa9euweFw1HXtIjrs9q3NSF9fHx4+fGicdKFQCI2Njcjlcka1y82bN/HWW29ZLq8oCnw+H0ZHR8suQLIsIxAI4MyZM3VV2YhQtLy8bHxGKBSqaR2fffYZ3G53WXGx0+nE9PQ0gG+LykUx8+LiIjo7O41iXVVVa97Ww07TNNy8eRPPPfccWltbMT8/X/YE29jYiD/+8Y944403kM/nkUqlMDg4iMuXL5fV09dTlXPYZDIZpFIp9PX1WZa+WZWM7Hbbi0KhgI2NjbqXKy4drVZyaEdpYnEpT/F36Ha78dlnn1VcTuzHxsYGPvroI7hcLuM9WZbh8XjqvnYRHTZ7GkaKb8Y+nw/j4+PGyex2uzE+Po4XX3wRPp8PDx8+NG7UxXX54kSOxWLQNK1iexLxFOJ2u8surLFYrOLFtvjpxefzAQCSyeS2+1ZLNY3D4cDU1JSptENUTYnqHtoiSRJ8Ph9mZmYQiURMxe3AVuna+++/j08++cR4LZvNwuPxwOFwwOVyIRAIYHJy0rgRtrS07Pdu2E60SXjy5InpdfG7syoZsSpFevLkian0yaqNRnG4KZXP55HNZus+BidOnMD4+DiGhobgdDqNappK51nxfpVW09RSReTz+cq+q0pqqaYpri4UpXDd3d2QZbls+wRZliHLsmUbE6KjYl9KRoovGLVMog5aURSj0WcymcTk5GTVBnmiqB6A0aBM3Ji6urq23c7i6qNcLmcEoeLGczst0RClL1SZCIE+n8+yDcjIyAgaGxvR2NiIfD5fVvoRCoXw6aefYmlpCY8ePYLb7S77jKamJsvXDwtRFVrchqFYrUFtN9qMADA9YFSbxHn91ltv4eOPP0Y2mzUFz50obTNi1e6ktM2IaLzr8/kwOzsLt9uNUCgETdNq+sziNidNTU3w+XxIp9OQJMmy4bBomN3e3o50Om2qhiI6Sp6Jrr2ViBNbkqS6nnZlWTZObNGQr9YbUCgUArB1Y3S5XEgmk5YNWGupphEymQzu3r0LAPj1r399JNos1CuXy2FmZsb4d2kbEPHke/36dbzwwgt4/Phx2e/B5XLh9OnTePvtt9Ha2oqXXnrJjl2xjehp9Mtf/rLsPREKxO+zOCQMDAzs+raIc2e7B4/SBt/Fy0qSZOoVY3WeFe9H8XkVDocrlkQU83q9WFxcNEKAaLRu1YB1p9U0lYiq58ePH7OKho68PQ0joprC7XbX1FVQ1PmWNl4TGhsby0KFCCkrKyuW9cWrq6t13ZhKS0cqqbU3jdiGN954A8FgEHNzc+js7Dy0XUp3anJyEj/84Q/R1NQEoLx7aXHXyRMnTuD3v/89Njc3y6q6QqEQgsEgAoFA2Y1IPN0e1pIRh8MBWZZNbRKsQkEt1TTPP//8vn5PxaGydEwRcW6VVo2IBwSrnmpA9erZnai1N812RInrxYsXoaoqbt++jVOnTu3adhIdRPvWmyadTldsxa+qKvx+v2VbAWF9fd3oRVHcyFTUTT948ADr6+umZQqFAlZWVixvTNWEQiE0NTVVLJr1er24ffu26aIviAAmSRKArQvPwsICIpEIgK0qK1VVcevWLTZg/UahUEBzczPeeecd0+uiqqD0Yt/R0YGlpSW89tprZcdA0zR8+eWXluFU0zTMzs4iHA4fqSfR4oHjrEoYS3t9iO9JlPzV02YkFovV1eA0l8shm82attcqNJY+dGiahq+++qriPov5Sxsx/+UvfylrC2M1TkgpSZIqlrRY9fSpZGBgAN3d3bhx4warZYiK7Gs1zeXLl7GysmJq9R6LxdDf34+5uTnjBm5ldXUVvb29yOfzaGlpMW4oqqqipaUFw8PDWF1dNS0jqmhKx6SoJJFIGA3nql1cSgdUsrpIiyeyyclJvPbaa6YneFE0zAasWxwOB957772yC33p07mmaYjFYnjuuedw8uRJy94yohRKtDkoDo7Ly8vo7+835q1UAnfYSJIEj8eDN998E0tLS5YlSsWy2azlGB21tBkRg/rVMombe2k7ntXV1bLB0tbX17G5uQlgq12MpmlYWlrCpUuXLINlpXPfqiu9aFBeLRiUhiyrHkm1lHbG4/GyzxIN/Vl9S0fZvoYRUWoQCASMulcA214IRAlHV1eXsY6zZ89CVVWj90Vvby8WFhZMTzel9cHbWVtbM3pnlBJPVG1tbejo6Nj2Ii3LshG4qg3iRdaKR+/UNA2fffYZOjs70dXVhd/97nfQdb1sBEvR7iQSiViOY3P37t2yhszP6pDiu02WZYyOjuLI8TTOAAAIyElEQVTtt9+2LFESxLlW6TzYbVYlHKXn4ddff42JiQmcPn0a165dw9raGu7fv494PA5JkvDzn/8cX375pWkdq6urWFpaeqpBxUS7sFAohOHh4W3HarEKtoVCAbFYrGpJXD6fx+bm5qGtPiSqxb6GEdFDYmBgAH6/Hz09PUaJQrWnAtFDoL293XhN3Gw8Hg8kSTIaL2538fnqq68sq19yuRwURTE9bYt2C263G5FIpKYnqGJWdfilrIqNOzs7a1r/Yba8vGxUr4njpaoqstksNjY2jBEsi5+MJycnIUkSJEnC2bNn0djYiPX1ddM4Nj/4wQ/s3C1biCfvgYEB/OpXvzLOQ6uqiU8++QQPHjxAX19fXZ+x0zFdStt0ifOwODSOj48DAM6ePQuXy4Wuri786U9/MkJCa2uraZ0ilM7PzyObzcLpdNZc6iC+G5/Ph5s3b0LXdaMxez1EVdeLL76Irq6uqssf9rZMRDXRd2At+7im+VRV1f1+vw5AB6BHo9GK80ajUWM+AHowGNQ1TdPj8bjx/6XrHRwc1PP5fNl6rF4X4vG46XOKp2rLCalUquLypVMqlTKW0zRNDwaDZa+dO3dOV1W17DNq2ZZa1Xq87Kaqqn7u3Dk9lUrpo6OjZfsv3i/+LcTjcT0ajeqqquo9PT1l36U43uJ7L11HNBrV4/H4Hu/Z06vnGIrfVSqV0oPBYNlvUSg9P8V3Wen7EO/ruvl89fv9Zd97qXw+rw8ODpadI6XLlh7H4s8UotFoxfNIfE7xMqX7WWkqvc4U73ct53vxvkSj0bLtrnbtOAi/QaJ61XPd2tMw8rTExbT4AiEuNlYXV8EqwBxlByWMPI3SG5R4rdLvp54b6bPgKBxDXS8/d63CiFB8cxfhfbeDPBHtXD3XrQZd/2aUsDo8+vwLtL7MrmgHBY/XwcdjSEQHTT3XrWd60DMiIiI6/BhGiIiIyFYMI0RERGQrhhEiIiKyFcMIERER2YphhIiIiGzFMEJERES2YhghIiIiWzGMEBERka0YRoiIiMhWz0QYSSQSpr9am0gktl1G/HXNWuYtXmYnfy5eURQMDQ2Z/hpwIpEoe42IiIjqt+dhJJPJoK2tzRQ2SicA0Lf+aB90XUc4HN52nRcvXkR/fz9mZmaMPyFfyzJdXV3Gn1Svtk3FIUeSJHg8Hpw5c6amzyIiIqLa7XkY8Xq9mJubw+joKPL5PHRdh6ZpCAaDSKVSpvCRSCS2LenI5XK4dOkSent7MTs7i0gkgqtXr1YtoRDL3Lx5E5IkweFwYGpqyhSASqfSQCTLMiKRCJLJJABgbW3tKb8ZIiIiAvapmsbr9eLYsWO4d+8eAMDlciESiWBmZsYIEYqiYHx8HCdOnKi4nkwmg+7ubkiSBFmWAQDhcBgejwcjIyOWgUQsI8syJEl6qv0Ih8OmkOLxeOBwOJ5qnUREREfdvrUZ6evrw8OHD43AEAqF0NjYiFwuZ1Sh3Lx5E2+99Zbl8oqiwOfzYXR01AgigizLCAQCZdUohUIBv/nNbzA3NwdJkpDL5TA0NFRXVUssFrOsxhkbG8PY2FhN1TxERERUWYOu63q9Cz36/Au0vnxq2/kKhQJGRkYwPT1d94bF43GEw2HkcjlTNY7L5aq4jKIo6OzsRDQaLQssYls8Hk/Ze/Wqti7xXiAQ2Lbty36p9XjRs4vHkIgOmnquW/tSMiLahtQ6RaNRAFvhwu12Q5ZlJJNJTE5OWpY4xGIxJBIJSJIEka3a2tqQyWSMeUQV0eXLlyuWdpROiqJY7k8+n0c2m0VXV1fF91paWp76eyMiIjoKnomuvZWIcCFJEgqFAjY2Nmq6ycuyjHQ6Da/XC2CrRGVgYACBQAAOhwOyLJcFoNJGteJzraiqCgD47ne/W3e1DxEREZntaRgRvVbcbve23XsbGhqMcTtkWbas4mhsbITb7Ta9JkLKysqKZQPWWCyG8fFx9PT07Mo+FQoFzMzMQJIkfP/730cgENi2Nw8RERFVtm+9adLpNKLRKOLxeFmphKqq8Pv9iEQiFXunrK+vY2lpCT6fD6FQyCiNENUiDx48wPr6ummZTCaDTz/9FAsLC2htbd2Vffnkk0/w4MED9PX1ASjvzaNpGnRdLwtNREREZG1fq2kuX76MlZUV08ilsVgM/f39Ro+XSlZXV9Hb24t8Po+WlhajcauqqmhpacHw8DBWV1dNy3i9Xty+fbtqo9d6iFKR3t5eowpI7FdjYyPW19ehaRqePHmyK59HRER0FOxrGBHVNoFAAE6n0xh9tbh9h5VCoYCVlRV0dXUZ6zh79ixUVcXMzAwikQh6e3uxsLBgarS62z744ANks1kMDw+X7df169eNfTh58iRLRoiIiGq0r2FE/D2ZgYEB+P1+9PT0GGN1VOq5AnzbE6a9vd14TQya5vF4IEkSXC4XTp8+jYmJiT1pv5FIJHD37l3cuHGjYkmLKDlpaWmB0+nc9W0gIiI6jPY0jJT+XZrl5WWjnUg6ncbi4qLx7+XlZVNjVtEuJJFIYGZmBteuXTPak2QyGbz55psAtqpIhO1GY62mUlsP8XdsxsfHMTc3ZyrByeVyCIVCxjY7nU5ks1nTthIREVF1expGRMNVETiqDTZW2t02mUwa1TDFg50VCgVMTEzg5s2bmJqaKrvpVxqN1UrxXwv2+XxobW3FSy+9ZLwvBjADgD/84Q9lVUkulwvJZLJsu3erjQoREdFRsKcjsNKzgcfr4OMxJKKD5pkbgZWIiIioEoYRIiIishXDCBEREdmKYYSIiIhsxTBCREREtmIYISIiIlsxjBAREZGtGEaIiIjIVgwjREREZCuGESIiIrIVwwgRERHZimGEiIiIbMUwQkRERLZiGDkC+NdeDz4eQyI6zL6z0wUfff7Fbm4HERERHVENuq7rdm8EERERHV2spiEiIiJbMYwQERGRrRhGiIiIyFYMI0RERGQrhhEiIiKyFcMIERER2YphhIiIiGzFMEJERES2+i9N5GcWXXFv7QAAAABJRU5ErkJggg==;" vertex="1" parent="1">
          <mxGeometry x="10" y="150" width="547" height="319" as="geometry" />
        </mxCell>
      </root>
    </mxGraphModel>
  </diagram>
</mxfile>
